<?xml version="1.0"?><svg width="640" height="480" xmlns="http://www.w3.org/2000/svg">
 <title>red person symbol</title>
 <g>
  <title>Layer 1</title>
  <path stroke="#ffffff" fill="#56aaff" id="path2457" d="m302.803009,90.423897"/>
  <g id="svg_1">
   <path fill="#ffffff" id="path2455" d="m295.312164,82.776962c22.433044,0 40.621429,-17.504242 40.621429,-39.094543c0,-21.589262 -18.188385,-39.09252 -40.621429,-39.09252c-22.434082,0 -40.620499,17.503258 -40.620499,39.09252c0,21.590302 18.186417,39.094543 40.620499,39.094543z" stroke="#000000"/>
   <path fill="#ffffff" id="path2459" d="m253.832184,91.405563c-28.766785,0 -51.900162,22.578201 -51.900162,50.73967l0,120.028046c0,23.33548 35.486435,23.33548 35.486435,0l0,-109.752777l8.399857,0l0,300.519623c0,31.199127 47.254593,30.281036 47.254593,0l0,-174.448792l8.139221,0l0,174.448792c0,30.281036 47.515228,31.199127 47.515228,0l0,-300.519623l8.203888,0l0,109.752777c0,23.514496 35.301422,23.514496 35.236755,0l0,-119.310028c0,-25.968178 -20.953857,-51.404076 -52.537811,-51.404076l-85.798004,-0.053612z" stroke="#000000"/>
  </g>
 </g>
</svg>